/* XPM */
char *tron_orange_up[] = {
/* columns rows colors chars-per-pixel */
"14 32 26 1 ",
"  c #000000",
". c #660066",
"X c #D800D8",
"o c #330033",
"O c #000000",
"+ c #B600FF",
"@ c #006DB6",
"# c #DB0000",
"$ c #FFFFFF",
"% c #FF0000",
"& c #FFB600",
"* c #000024",
"= c #000049",
"- c #FF4900",
"; c #00FF24",
": c #0000FF",
"> c #FF9249",
", c #0000DB",
"< c #24DBFF",
"1 c #FF49B6",
"2 c #0000B6",
"3 c #FF00FF",
"4 c #00FFFF",
"5 c #FFFF00",
"6 c #00FF00",
"7 c #009200",
/* pixels */
"    &&&&&&    ",
"   &&&&&&&&   ",
" :&&&&&&&&&&: ",
" :&&&OOOO&&&: ",
"::&&O::::O&&::",
"::&&O:>>>O&&::",
" :&&O>>>>O&&: ",
" :&&OOOOOO&&: ",
"  O&OOOOOO&O  ",
"  O&OOOOOO&O  ",
"  O&OOOOOO&O  ",
"::O&OOOOOO&O::",
":&O&OOOOOO&O&:",
">&O&OOOOOO&O&>",
">&O&OOOOOO&O&>",
"&&O&OOOOOO&O&&",
"&&O&OOOOOO&O&&",
"&&O&OOOOOO&O&&",
"&&OOOOOOOOOO&&",
" >OOOOOOOOOO> ",
" &OOO>>>>OOO& ",
" &>OO>>>>OO>& ",
"  >OO>>>>OO>  ",
"  &O>>>>>>O&  ",
"  &OOOOOOOO&  ",
"  &OO::::OO&  ",
"  &&&::::&&&  ",
"     ::::     ",
"     >>>>     ",
"     >>>>     ",
"     >>>>     ",
"     >>>>     "
};

