/* XPM */
static char *tron_blue_down[] = {
/* columns rows colors chars-per-pixel */
"14 32 26 1 ",
"  c None",
". c #660066",
"X c #D800D8",
"o c #330033",
"O c black",
"+ c #B600FF",
"@ c #006DB6",
"# c #DB0000",
"$ c white",
"% c red",
"& c #FFB600",
"* c #000024",
"= c #000049",
"- c #FF4900",
"; c #00FF24",
": c blue",
"> c #FF9249",
", c #0000DB",
"< c #24DBFF",
"1 c #FF49B6",
"2 c #0000B6",
"3 c magenta",
"4 c cyan",
"5 c yellow",
"6 c green",
"7 c #009200",
/* pixels */
"     <<<<     ",
"     <<<<     ",
"     <<<<     ",
"     ::::     ",
"     ::::     ",
"  222::::222  ",
"  2OO::::OO2  ",
"  2OOOOOOOO2  ",
"  2O@@@@@@O2  ",
"  <OO@@@@OO<  ",
" 2<OO@@@@OO<2 ",
" 2OO$@@@@OOO2 ",
" <OOOOOOOOOO< ",
"22OOOOOOOOOO22",
"22O2OOOOOO2O22",
"22O2OOOOOO2O22",
"22O2OOOOOO2O22",
"<2O2OOOOOO2O2<",
"<2O2OOOOOO2O2<",
":2O2OOOOOO2O2:",
"<:O2OOOOOO2O:<",
"  O2OOOOOO2O  ",
"  O2OOOOOO2O  ",
"  O2OOOOOO2O  ",
" <22O2222O22< ",
" <22O2222O22< ",
"<<22O<222O22<<",
"<<22O<<<<O22<<",
" <222OOOO222< ",
" <2222222222< ",
"   22222222   ",
"    @22222    "
};
