/* XPM */
char *tron_blue_up[] = {
/* columns rows colors chars-per-pixel */
"14 32 26 1 ",
"  c #000000",
". c #660066",
"X c #D800D8",
"o c #330033",
"O c #000000",
"+ c #B600FF",
"@ c #006DB6",
"# c #DB0000",
"$ c #FFFFFF",
"% c #FF0000",
"& c #FFB600",
"* c #000024",
"= c #000049",
"- c #FF4900",
"; c #00FF24",
": c #0000FF",
"> c #FF9249",
", c #0000DB",
"< c #24DBFF",
"1 c #FF49B6",
"2 c #0000B6",
"3 c #FF00FF",
"4 c #00FFFF",
"5 c #FFFF00",
"6 c #00FF00",
"7 c #009200",
/* pixels */
"    @22222    ",
"   22222222   ",
" <2222222222< ",
" <222OOOO222< ",
"<<22O<<<<O22<<",
"<<22O<222O22<<",
" <22O2222O22< ",
" <22O2222O22< ",
"  O2OOOOOO2O  ",
"  O2OOOOOO2O  ",
"  O2OOOOOO2O  ",
"<:O2OOOOOO2O:<",
":2O2OOOOOO2O2:",
"<2O2OOOOOO2O2<",
"<2O2OOOOOO2O2<",
"22O2OOOOOO2O22",
"22O2OOOOOO2O22",
"22O2OOOOOO2O22",
"22OOOOOOOOOO22",
" <OOOOOOOOOO< ",
" 2OO$@@@@OOO2 ",
" 2<OO@@@@OO<2 ",
"  <OO@@@@OO<  ",
"  2O@@@@@@O2  ",
"  2OOOOOOOO2  ",
"  2OO::::OO2  ",
"  222::::222  ",
"     ::::     ",
"     ::::     ",
"     <<<<     ",
"     <<<<     ",
"     <<<<     "
};
