/* XPM */
static char *tron_orange_down[] = {
/* columns rows colors chars-per-pixel */
"14 32 26 1 ",
"  c None",
". c #660066",
"X c #D800D8",
"o c #330033",
"O c black",
"+ c #B600FF",
"@ c #006DB6",
"# c #DB0000",
"$ c white",
"% c red",
"& c #FFB600",
"* c #000024",
"= c #000049",
"- c #FF4900",
"; c #00FF24",
": c blue",
"> c #FF9249",
", c #0000DB",
"< c #24DBFF",
"1 c #FF49B6",
"2 c #0000B6",
"3 c magenta",
"4 c cyan",
"5 c yellow",
"6 c green",
"7 c #009200",
/* pixels */
"     >>>>     ",
"     >>>>     ",
"     >>>>     ",
"     >>>>     ",
"     ::::     ",
"  &&&::::&&&  ",
"  &OO::::OO&  ",
"  &OOOOOOOO&  ",
"  &O>>>>>>O&  ",
"  >OO>>>>OO>  ",
" &>OO>>>>OO>& ",
" &OOO>>>>OOO& ",
" >OOOOOOOOOO> ",
"&&OOOOOOOOOO&&",
"&&O&OOOOOO&O&&",
"&&O&OOOOOO&O&&",
"&&O&OOOOOO&O&&",
">&O&OOOOOO&O&>",
">&O&OOOOOO&O&>",
":&O&OOOOOO&O&:",
"::O&OOOOOO&O::",
"  O&OOOOOO&O  ",
"  O&OOOOOO&O  ",
"  O&OOOOOO&O  ",
" :&&OOOOOO&&: ",
" :&&O>>>>O&&: ",
"::&&O:>>>O&&::",
"::&&O::::O&&::",
" :&&&OOOO&&&: ",
" :&&&&&&&&&&: ",
"   &&&&&&&&   ",
"    &&&&&&    "
};
