/* XPM */
char *tron_blue_left[] = {
/* columns rows colors chars-per-pixel */
"32 14 26 1 ",
"  c #000000",
". c #660066",
"X c #D800D8",
"o c #330033",
"O c #000000",
"+ c #B600FF",
"@ c #006DB6",
"# c #DB0000",
"$ c #FFFFFF",
"% c #FF0000",
"& c #FFB600",
"* c #000024",
"= c #000049",
"- c #FF4900",
"; c #00FF24",
": c #0000FF",
"> c #FF9249",
", c #0000DB",
"< c #24DBFF",
"1 c #FF49B6",
"2 c #0000B6",
"3 c #FF00FF",
"4 c #00FFFF",
"5 c #FFFF00",
"6 c #00FF00",
"7 c #009200",
/* pixels */
"    <<     <:<<2222             ",
"  <<<<<<   :2222222<22          ",
"  222222OOOOOOOOOOOOO<<2222     ",
" 22222222222222222OOOOOOOO2     ",
"@222OOOOOOOOOOOOOOOO$OO@OO2     ",
"222O<<22OOOOOOOOOOOO@@@@O::::<<<",
"222O<222OOOOOOOOOOOO@@@@O::::<<<",
"222O<222OOOOOOOOOOOO@@@@O::::<<<",
"222O<222OOOOOOOOOOOO@@@@O::::<<<",
"2222OOOOOOOOOOOOOOOOOOO@OO2     ",
" 22222222222222222OOOOOOOO2     ",
"  222222OOOOOOOOOOOOO<<2222     ",
"  <<<<<<   :2222222<22          ",
"    <<     <:<<2222             "
};
