/* XPM */
static char * I_xpm[] = {
"8 12 2 1",
" 	c #000000",
".	c #FFFFFF",
"........",
"   ..   ",
"   ..   ",
"   ..   ",
"   ..   ",
"   ..   ",
"   ..   ",
"   ..   ",
"   ..   ",
"........",
"        ",
"        "};
