/* XPM */
static char * K_xpm[] = {
"8 12 2 1",
" 	c #000000",
".	c #FFFFFF",
"..   .. ",
"..  ..  ",
".. ..   ",
"....    ",
"...     ",
"...     ",
"....    ",
".. ..   ",
"..  ..  ",
"..   .. ",
"        ",
"        "};
