/* XPM */
static char *cursor[] = {
/* columns rows colors chars-per-pixel */
"32 32 115 2 ",
"   c #000000",
".  c #000000",
"X  c #0D0D0D",
"o  c #001515",
"O  c #131313",
"+  c #1B1B1B",
"@  c #142D2D",
"#  c #1B3D3D",
"$  c #242424",
"%  c #2C2C2C",
"&  c #333333",
"*  c #3B3B3B",
"=  c #245353",
"-  c #295252",
";  c #345757",
":  c #2E6969",
">  c #347373",
",  c #387575",
"<  c #434343",
"1  c #4C4C4C",
"2  c #4C5555",
"3  c #545454",
"4  c #5C5C5C",
"5  c #4B6969",
"6  c #4D7878",
"7  c #547070",
"8  c #527A7A",
"9  c #636363",
"0  c #6B6B6B",
"q  c #737373",
"w  c #7E7E7E",
"e  c #3A8282",
"r  c #3E8B8B",
"t  c #418C8C",
"y  c #4A8C8C",
"u  c #419090",
"i  c #489393",
"p  c #459A9A",
"a  c #529494",
"s  c #589191",
"d  c #6F8383",
"f  c #748686",
"g  c #7F8383",
"h  c #7A8C8C",
"j  c #629696",
"k  c #679F9F",
"l  c #7E9A9A",
"z  c #4DADAD",
"x  c #52AFAF",
"c  c #56B1B1",
"v  c #5AB2B2",
"b  c #54BBBB",
"n  c #5BBDBD",
"m  c #65A8A8",
"M  c #75A1A1",
"N  c #77A9A9",
"B  c #63B6B6",
"V  c #6AB9B9",
"C  c #5CCBCB",
"Z  c #5FD3D3",
"A  c #76CACA",
"S  c #79CCCC",
"D  c #61D6D6",
"F  c #69D5D5",
"G  c #63DBDB",
"H  c #6CDDDD",
"J  c #71D6D6",
"K  c #74DDDD",
"L  c #66E3E3",
"P  c #6AE4E4",
"I  c #6BECEC",
"U  c #70E0E0",
"Y  c #7DE1E1",
"T  c #74ECEC",
"R  c #6FF6F6",
"E  c #6FF7F7",
"W  c #6EF5F5",
"Q  c #6FF5F5",
"!  c #71F0F0",
"~  c #73F0F0",
"^  c #73F1F1",
"/  c #70F5F5",
"(  c #70F6F6",
")  c #71F6F6",
"_  c #70F7F7",
"`  c #70F8F8",
"'  c #70F9F9",
"]  c #71FAFA",
"[  c #71FBFB",
"{  c #72FBFB",
"}  c #73FBFB",
"|  c #75F8F8",
" . c #72FDFD",
".. c #71FBFB",
"X. c #808080",
"o. c #828282",
"O. c #838383",
"+. c #858585",
"@. c #868686",
"#. c #878787",
"$. c #858A8A",
"%. c #8C8C8C",
"&. c #8E8E8E",
"*. c #819292",
"=. c #829494",
"-. c #839E9E",
";. c #8E9F9F",
":. c #919191",
">. c #929292",
",. c #969696",
"<. c #979797",
"1. c #84ADAD",
"2. c #87BDBD",
"3. c #81C5C5",
"4. c #86C8C8",
/* pixels */
"                      C G I _  . ._ I G C                       ",
"                  G ' H x j d g $.*.M c H ' G                   ",
"              D _ A f 9 % 3 9 q O.w q * 0 f S _ G               ",
"            I K h O.w 0 $ 1 1 4 0 q 0 & 9 q +.;.Y I             ",
"          W V q O.+.w 0 $ & % & * 1 3 $ 4 0 w >.<.4._           ",
"        W m 9 0 w w q 9 O $ . . X $ * O < 3 0 +.<.<.2._         ",
"      I B 4 9 0 0 9 * O $ + . . . . O $ X + < 9 +.>.>.3.I       ",
"    D F 3 4 4 3 < + + $ t . . . . . . r . . . & 9 O.%.%.K G     ",
"    _ 5 3 3 3 * X X : L I . . . . . . I L : . . % 0 O.+.=._     ",
"  D n * < 1 < O . e W z o . . . . . . o z W e . . * 0 w O.A G   ",
"  ' ; & * * $ X : W u . . .         . . . u W : . X 3 q w h '   ",
"C D + $ % % . X L z . .       w         . . z L . . & 9 q q U C ",
"D z X O $ $ X t I o .                     . o I r . O 3 9 0 V G ",
"I e . X $ O + C z . .         w           . . z C . . * 3 4 j I ",
"W = . X $ X % I > .                         . > I . . & 1 3 7 W ",
" .@ . X % X < ' # .   w   w   w   w   w   q . # ' . . & 1 1 2  .",
" .@ . X & X 3 ' # .                         . # ' . . & < 1 2  .",
"W = . . % + 4 ! > .           w             . > I + X & < < 5 W ",
"I e . . $ & 4 J B . .                     . . x C + + * * * y I ",
"D z . . O * < N T o .         w           . o I y + % & % % c D ",
"C D . . . % + q T B . .                 . . x P & X & $ + + G C ",
"  ' = . . O * < -.| i . . .   q     . . . u _ 6 $ $ % + O - '   ",
"  D b . . . $ % 9 1.| B o . . . . . . o v _ s & + % O X X b D   ",
"    W = . . . & $ 4 l T T B , # # , v I P 8 & O % O . . = W     ",
"    D Z . . . . % $ * 4 m J ! ' ' ! F a % + O + O . . . D D     ",
"      I z . . . . + $ X $ 1 9 q w 0 1 + . . . . . . . z I       ",
"        W p . . . . . O . % * 3 9 4 * . . . . . . . p W         ",
"          W z . . . . . . X O $ & & % . . . . . . z W           ",
"            I Z = . . . . . . . . O O . . . . = D I             ",
"              D W b = . . . . . . . . . . = b W D               ",
"                  D ' D z e = @ @ = e z D ' D                   ",
"                      C D I W  . .W I D C                       ",
};
