/* XPM */
static char *tron_menu_title[] = {
/* columns rows colors chars-per-pixel */
"250 58 2 1 ",
"  c #000000",
". c #6DCFF5",
/* pixels */
" .....................                ...........................................................................                                       ............                           ........                                   ............... ",
"......................              ................................................................................                                ...................                       ..........                                  ................",
".......................            ...................................................................................                            ........................                    ...........                                .................",
"...                 ...          ......                                                                         .......                         ........           .........                  ...     ...                                ...           ...",
"...                 ...         .....                                                                              ......                     .......                  .......                ...      ...                               ...           ...",
"...                 ...        ....                                                                                 ......                  ......                       ......               ...       ...                              ...           ...",
"...                 ...       ....                                                                                    .....                .....                           ......             ...       ....                             ...           ...",
"...                 ...      ....                                                                                      ....               .....                              .....            ...        ....                            ...           ...",
"...                 ...      ...                                                                                        ....             ....                                 .....           ...         ....                           ...           ...",
"...                 ...     ....                                                                                         ....           ....                                    ....          ...          ....                          ...           ...",
"...                 ...    ....                                                                                          ....          ....                                      ....         ...           ....                         ...           ...",
"...                 ...    ...                                                                                            ....        ....                                        ...         ...            ....                        ...           ...",
"...                 ...    ...                                                                                            ....       ....                                          ...        ...             ...                        ...           ...",
".......................    ...             ...................................................................................       ...                                            ...       ...              ...                       ...           ...",
".......................   ...             ....................................................................................      ....                 ..........                 ...       ...               ...                      ...           ...",
" .....................    ...            .....................................................................................      ...                ..............                ...      ...               ....                     ...           ...",
"                          ...           ....                                                                                       ...               ..................              ....     ...                ....                    ...           ...",
"                          ...           ...                                                                                        ...              ......        ......              ...     ...                 ....                   ...           ...",
"                          ...           ...                                                                                       ...              .....            .....              ..     ...                  ....                  ...           ...",
"                          ...           ...                                                                                       ...             ....                ....             ...    ...                   ....                 ...           ...",
"                          ...           ...                                                                                      ....            ....                  ....            ...    ...                    ....                ...           ...",
"                          ...           ...                      ...............     .........................................   ...            ....                    ....            ...   ...                     ....               ...           ...",
"                          ...           ...                     .................   ..........................................   ...            ...                      ...            ...   ...                      ...               ...           ...",
"                          ...           ...                     .................   ..........................................   ...           ....                      ....           ...   ...                      ....             ....           ...",
"                          ...           ...                     ...           ...   ...                                   ....  ...            ...                        ...           ...   ...                       ...  ...............           ...",
"                          ...           ...                     ...           ...   ...                                   ...   ...            ...                        ....           ..   ...                       ... ................           ...",
"                          ...           ...                     ...           ...   ...                                  ....   ...           ...                          ...           ..   ...                       ... ....                       ...",
"                          ...           ...                     ...           ...   ...                                  ...    ...           ...                          ...           ..   ...                       ... ...                        ...",
"                          ...           ...                     ...           ...   ...                                 ....    ...           ...                          ...           ...  ...                       ... ...                        ...",
"                          ...           ...                     ...           ...   ...                                ....     ...           ...                          ...           ...  ...                       ... ...                        ...",
"                          ...           ...                     ...           ...   ...                               ....      ...           ...                          ...           ..   ...                       ... ...                        ...",
"                          ...           ...                     ...           ...   ...                              .....      ...           ...                          ...           ..   ...                       ... ...                        ...",
"                          ...           ...                     ...           ...   ...                            .....        ...           ...                          ...           ..   ...          ................ ...                        ...",
"                          ...           ...                     ...           ...   ...                          ......         ...            ...                        ...           ...   ...          ...............  ...                        ...",
"                          ...           ...                     ...           ...    ...              ................           ...           ...                        ...           ...   ...          ....             ....                       ...",
"                          ...           ...                     ...           ...     ...             ..............             ...           ....                      ....           ...   ...          ...               ....                      ...",
"                          ...           ...                     ...           ...      ...             ..........                ...            ...                      ...            ...   ...          ...                ....                     ...",
"                          ...           ...                     ...           ...      ....             .....                    ....           ....                    ....           ...    ...          ...                 ....                    ...",
"                          ...           ...                     ...           ...       ....             ....                     ...            ....                  ....            ...    ...          ...                  ....                   ...",
"                          ...           ...                     ...           ...        ....             .....                   ...             ....                ....             ...    ...          ...                   ....                  ...",
"                          ...           ...                     ...           ...         ....             .....                  ....             .....            .....             ...     ...          ...                    ...                  ...",
"                          ...           ...                     ...           ...          ....              ....                  ...              ......        ......             ....     ...          ...                    ....                 ...",
"                          ...           ...                     ...           ...           ....              ....                 ....              ..................              ...      ...          ...                     ....                ...",
"                          ...           ...                     ...           ...            ....              ....                 ....               ..............               ....      ...          ...                      ....               ...",
"                          ...           ...                     ...           ...             ....              ....                 ...                  ........                  ...       ...          ...                       ....              ...",
"                          ...           ...                     ...           ...              ....              ....                ....                                          ...        ...          ...                        ....             ...",
"                          ...           ...                     ...           ...               ....              ....                ....                                        ....        ...          ...                         ....            ...",
"                          ...           ...                     ...           ...                ....              ....                ....                                      ....         ...          ...                          ....           ...",
"                          ...           ...                     ...           ...                 ....              ....                ....                                    ....          ...          ...                           ...           ...",
"                          ...           ...                     ...           ...                  ....              ....                ....                                 .....           ...          ...                            ...          ...",
"                          ...           ...                     ...           ...                   ....              ....                .....                              .....            ...          ...                             ...         ...",
"                          ...           ...                     ...           ...                    ....              ....                .....                           ......             ...          ...                             ....        ...",
"                          ...           ...                     ...           ...                     ....              ....                ......                       ......               ...          ...                              ....       ...",
"                          ...           ...                     ...           ...                      ....              ....                 .......                  .......                ...          ...                               ....      ...",
"                          ...           ...                     ...           ...                       ....              ....                 .........           .........                  ...          ...                                ....     ...",
"                          .................                     .................                        .....................                    ........................                    ................                                 ...........",
"                           ................                      ...............                          ....................                      ...................                       ................                                  ..........",
"                            ..............                       ...............                           ...................                          ............                           ..............                                    ........ "
};
