/* XPM */
static char * num_6_xpm[] = {
"8 12 2 1",
" 	c #000000",
".	c #FFFFFF",
" ...... ",
"..    ..",
"..      ",
"..      ",
"......  ",
"..   .. ",
"..   .. ",
"..   .. ",
"..   .. ",
" .....  ",
"        ",
"        "};
